<?xml version="1.0" standalone="no"?>
<!DOCTYPE svg PUBLIC "-//W3C//DTD SVG 20010904//EN"
 "http://www.w3.org/TR/2001/REC-SVG-20010904/DTD/svg10.dtd">
<svg version="1.0" xmlns="http://www.w3.org/2000/svg"
 width="114.187351pt" height="118.530055pt" viewBox="0 0 114.187351 118.530055"
 preserveAspectRatio="xMidYMid meet">
<metadata>
Created by potrace 1.16, written by Peter Selinger 2001-2019
</metadata>
<g transform="translate(-13.000000,140.361756) scale(0.100000,-0.100000)"
fill="#000000" stroke="none">
<path d="M670 1394 c0 -19 45 -54 77 -60 41 -8 104 28 103 59 0 7 -5 4 -11 -6
-14 -24 -73 -49 -96 -40 -10 3 -30 17 -45 31 -16 14 -28 21 -28 16z"/>
<path d="M714 1382 c24 -27 66 -28 97 -2 13 10 19 19 13 20 -6 0 -17 -7 -24
-15 -16 -20 -50 -19 -80 2 l-25 17 19 -22z"/>
<path d="M654 1335 c-4 -8 -3 -23 0 -32 6 -14 9 -15 15 -4 7 11 9 11 14 0 3
-11 6 -10 12 4 10 23 -1 47 -20 47 -9 0 -18 -7 -21 -15z m36 -14 c0 -4 -7 -8
-15 -8 -16 0 -20 9 -9 20 8 8 24 -1 24 -12z"/>
<path d="M895 1225 c-51 -51 -18 -135 53 -135 21 0 32 -5 32 -15 0 -21 -57
-28 -115 -14 -77 19 -156 13 -227 -15 -53 -22 -64 -23 -71 -11 -11 21 -27 19
-54 -7 -21 -20 -24 -20 -41 -5 -10 10 -25 17 -33 17 -17 0 -119 -100 -119
-117 0 -12 -14 -15 -104 -27 -22 -3 -44 -10 -50 -16 -8 -8 7 -82 53 -263 92
-363 87 -347 119 -348 15 0 65 -13 112 -29 82 -27 86 -27 102 -10 10 10 43 24
75 30 82 17 254 76 351 121 98 45 155 87 172 128 7 18 21 31 33 33 29 4 28 32
0 36 -16 2 -29 17 -42 46 -10 24 -34 61 -53 82 -19 22 -33 46 -30 54 3 12 1
12 -13 -2 -17 -15 -16 -18 18 -48 20 -17 48 -56 63 -86 18 -37 32 -54 45 -54
11 0 19 -4 19 -10 0 -5 -9 -10 -20 -10 -13 0 -24 -10 -31 -27 -11 -31 -47 -73
-61 -73 -5 0 -6 5 -2 12 4 7 3 8 -5 4 -6 -4 -9 -12 -5 -17 3 -5 -32 -27 -78
-48 -153 -72 -371 -140 -384 -120 -3 5 -10 7 -15 4 -5 -4 -13 4 -18 17 -18 44
-24 63 -23 68 0 3 -6 50 -13 104 -22 154 -29 302 -16 310 6 4 30 -5 54 -19
l44 -25 11 52 c6 29 15 66 22 82 10 26 13 28 26 15 16 -17 153 -316 155 -339
1 -27 39 93 43 137 4 55 9 60 30 28 18 -28 47 -33 66 -10 10 12 7 27 -14 81
-15 37 -24 69 -21 72 3 4 9 2 13 -3 4 -6 41 -21 82 -34 41 -13 99 -34 128 -47
28 -12 52 -20 52 -17 0 17 -186 163 -207 163 -7 0 -13 4 -13 10 0 5 34 20 75
32 41 13 75 26 75 29 0 4 -45 15 -100 25 -56 9 -97 21 -93 25 11 11 236 -24
240 -36 6 -20 -13 -32 -79 -49 -38 -10 -68 -23 -68 -28 0 -6 8 -7 18 -3 9 4
39 13 65 20 59 16 79 32 75 59 -3 17 -15 23 -73 33 -38 7 -85 15 -102 18 -20
4 -33 12 -33 20 0 21 30 18 31 -2 0 -12 2 -13 6 -5 10 25 -16 40 -61 35 -53
-6 -86 20 -86 66 0 34 39 71 75 71 55 0 91 -61 65 -111 -6 -11 -7 -19 -1 -19
13 0 21 26 21 65 0 68 -95 101 -145 50z m-33 -175 c29 -6 64 -17 78 -24 14 -8
48 -17 75 -21 68 -9 86 -20 44 -29 -18 -3 -43 -13 -56 -21 -25 -16 -31 -45
-10 -45 13 0 151 -99 145 -105 -3 -4 -148 42 -185 58 -36 16 -39 1 -13 -73 19
-55 22 -72 12 -82 -10 -10 -18 -7 -38 15 -21 22 -29 26 -40 16 -8 -6 -14 -26
-15 -43 0 -17 -6 -49 -12 -70 l-12 -39 -64 144 c-35 79 -73 152 -84 162 -18
16 -22 16 -37 2 -9 -8 -22 -40 -29 -70 -7 -30 -16 -55 -21 -55 -5 0 -21 8 -38
17 -48 28 -62 14 -62 -64 0 -90 29 -347 45 -398 7 -22 22 -45 34 -51 22 -11
22 -12 -5 -18 -24 -6 -33 -1 -80 51 -101 111 -148 252 -124 370 27 132 117
241 255 309 52 26 95 39 138 43 38 4 57 9 49 14 -24 16 -111 -4 -193 -44 -299
-145 -357 -476 -125 -711 50 -51 54 -58 31 -58 -37 0 -145 126 -129 151 4 7 3
9 -4 5 -15 -9 -51 75 -64 155 -15 88 -1 170 46 262 l34 67 -98 0 c-54 0 -101
-4 -104 -8 -3 -5 29 -134 70 -287 49 -184 71 -282 64 -289 -5 -5 -12 -7 -16
-3 -3 3 -39 135 -80 294 -50 197 -70 291 -63 298 5 5 63 12 127 14 112 3 119
4 151 31 33 28 34 29 17 54 -9 15 -21 26 -27 26 -6 0 -31 -22 -56 -50 -25 -27
-49 -50 -54 -50 -22 0 -5 30 46 80 l55 54 25 -24 25 -24 28 27 c34 32 38 33
45 6 5 -18 8 -19 28 -9 85 46 174 59 271 40z m-409 -121 c-20 -22 -73 -38 -73
-22 0 3 14 23 31 45 30 37 32 38 49 21 17 -17 17 -19 -7 -44z m-73 -73 c0 -2
-14 -35 -32 -72 -27 -58 -33 -83 -36 -159 -4 -81 -1 -99 26 -172 19 -51 49
-106 78 -145 26 -34 41 -59 32 -56 -9 4 -34 12 -57 19 -22 6 -38 16 -35 20 5
8 -38 184 -102 419 -19 69 -34 128 -34 132 0 4 12 9 28 11 37 6 132 8 132 3z"/>
<path d="M521 994 c-7 -8 -10 -18 -7 -21 7 -7 36 16 36 28 0 13 -13 10 -29 -7z"/>
<path d="M905 1200 c-23 -25 -13 -67 21 -82 57 -26 119 37 79 82 -24 26 -76
26 -100 0z m89 -12 c27 -38 -11 -76 -59 -58 -27 10 -34 47 -13 68 19 19 55 14
72 -10z"/>
<path d="M647 1194 c-4 -4 -7 -16 -7 -26 0 -13 8 -18 31 -18 26 0 30 3 27 23
-3 22 -36 36 -51 21z m41 -22 c2 -7 -6 -12 -17 -12 -21 0 -27 11 -14 24 9 9
26 2 31 -12z"/>
<path d="M274 1145 c-10 -25 4 -45 31 -45 21 0 25 5 25 30 0 25 -4 30 -25 30
-14 0 -28 -7 -31 -15z m46 -15 c0 -11 -6 -20 -14 -20 -18 0 -29 16 -21 30 11
18 35 11 35 -10z"/>
<path d="M295 1130 c3 -5 8 -10 11 -10 2 0 4 5 4 10 0 6 -5 10 -11 10 -5 0 -7
-4 -4 -10z"/>
<path d="M150 1120 c-21 -21 -27 -74 -10 -85 6 -4 7 5 4 23 -7 32 22 72 51 72
21 0 55 -36 55 -59 0 -34 -19 -33 -22 1 -2 26 -8 34 -27 36 -23 4 -51 -19 -51
-39 0 -20 33 -39 57 -33 19 5 24 4 18 -6 -5 -8 -20 -10 -41 -7 -36 6 -58 -10
-52 -40 5 -28 52 -24 56 5 2 12 10 22 18 22 22 0 54 38 54 65 0 32 -33 65 -65
65 -14 0 -34 -9 -45 -20z m68 -48 c3 -18 -1 -22 -22 -22 -19 0 -26 5 -26 18 0
39 43 43 48 4z m-40 -79 c-2 -10 -10 -18 -18 -18 -8 0 -16 8 -18 18 -2 12 3
17 18 17 15 0 20 -5 18 -17z"/>
<path d="M155 990 c3 -5 8 -10 11 -10 2 0 4 5 4 10 0 6 -5 10 -11 10 -5 0 -7
-4 -4 -10z"/>
<path d="M1060 916 c0 -2 33 -28 73 -59 81 -62 133 -114 125 -123 -7 -7 -38 2
-177 50 -57 20 -106 35 -108 32 -2 -2 3 -20 11 -40 l15 -37 29 21 28 21 83
-31 c148 -54 175 -30 69 62 -96 83 -148 120 -148 104z m-28 -126 c5 0 3 -7 -6
-15 -19 -20 -23 -19 -29 6 -4 15 -2 19 10 15 8 -3 19 -6 25 -6z"/>
<path d="M650 789 c-8 -38 -9 -64 -3 -70 6 -6 9 4 10 25 1 19 5 42 10 51 8 14
17 -1 46 -71 19 -49 34 -91 32 -92 -3 -4 -163 -41 -177 -42 -3 0 -8 32 -10 70
-2 39 1 70 5 70 5 0 20 -9 34 -20 14 -11 35 -19 47 -19 20 1 20 2 1 6 -11 3
-29 13 -40 22 -11 10 -31 24 -45 33 l-26 16 9 -77 c4 -42 6 -94 3 -116 -2 -22
-2 -32 1 -23 5 19 9 20 106 43 79 18 107 19 107 5 0 -5 -13 -10 -29 -10 -17 0
-32 -4 -35 -9 -3 -4 3 -41 14 -80 11 -40 18 -77 14 -82 -11 -18 -21 3 -39 79
-9 39 -21 72 -26 72 -5 0 -29 -5 -54 -12 -51 -14 -52 -15 -33 -114 11 -61 21
-79 31 -51 3 9 13 10 45 1 23 -6 42 -8 42 -4 0 10 -37 20 -72 20 -24 0 -28 5
-33 38 -4 20 -9 49 -11 63 -4 22 -1 27 23 32 15 3 35 8 44 12 12 4 19 -9 33
-69 17 -74 31 -92 56 -76 13 8 9 40 -16 136 -5 17 1 24 25 32 31 11 32 10 53
-33 35 -73 78 -53 99 45 13 65 12 62 32 54 9 -3 24 -29 33 -57 9 -29 22 -55
28 -59 18 -12 37 13 31 42 -4 20 -2 29 11 34 13 5 16 15 11 53 l-5 47 19 -25
c22 -26 62 -100 57 -102 -30 -15 -43 -28 -45 -43 -2 -15 -1 -15 9 4 8 16 17
21 31 16 18 -6 19 -3 13 27 -10 52 -86 162 -102 147 -2 -3 1 -26 8 -52 14 -54
3 -75 -28 -50 -17 14 -17 15 -1 10 11 -3 16 -2 12 4 -5 9 -35 15 -35 8 0 -2 9
-26 20 -55 12 -32 16 -54 10 -58 -11 -7 -23 20 -35 74 -4 20 -14 35 -26 38
-10 3 -19 11 -19 18 0 7 -7 15 -15 19 -11 4 -15 -2 -16 -27 -1 -52 -33 -141
-51 -145 -19 -4 -52 62 -43 85 2 8 1 12 -4 9 -8 -5 -75 130 -102 207 -7 20
-16 37 -20 37 -3 0 -12 -27 -19 -61z"/>
<path d="M991 714 c0 -11 3 -14 6 -6 3 7 2 16 -1 19 -3 4 -6 -2 -5 -13z"/>
<path d="M966 681 c-3 -5 1 -12 10 -15 20 -8 29 -1 19 13 -8 13 -22 14 -29 2z"/>
<path d="M1167 674 c-14 -15 -7 -53 12 -59 31 -10 52 5 49 34 -2 19 -9 27 -28
29 -14 2 -29 0 -33 -4z m51 -27 c4 -20 -25 -34 -40 -19 -15 15 -1 44 19 40 10
-2 19 -11 21 -21z"/>
<path d="M1185 650 c-3 -5 1 -10 10 -10 9 0 13 5 10 10 -3 6 -8 10 -10 10 -2
0 -7 -4 -10 -10z"/>
<path d="M137 634 c-4 -4 -7 -18 -7 -31 0 -21 4 -24 28 -21 21 2 27 8 27 28 0
18 -6 26 -20 28 -12 2 -24 0 -28 -4z m38 -24 c0 -8 -8 -16 -17 -18 -13 -2 -18
3 -18 18 0 15 5 20 18 18 9 -2 17 -10 17 -18z"/>
<path d="M150 610 c0 -5 5 -10 11 -10 5 0 7 5 4 10 -3 6 -8 10 -11 10 -2 0 -4
-4 -4 -10z"/>
<path d="M541 514 c0 -11 3 -14 6 -6 3 7 2 16 -1 19 -3 4 -6 -2 -5 -13z"/>
<path d="M1082 510 c-7 -11 -32 -30 -56 -42 -41 -20 -45 -20 -61 -5 -31 31
-134 11 -149 -29 -10 -25 21 -36 53 -20 16 9 40 16 53 16 30 -1 -68 -42 -195
-81 -100 -31 -141 -33 -117 -4 7 8 29 15 49 16 l36 1 -35 10 c-24 7 -36 6 -38
-1 -2 -6 -10 -11 -18 -11 -15 0 -19 -27 -6 -47 6 -10 21 -10 68 3 69 18 247
80 287 101 16 8 35 12 43 9 7 -3 13 -1 11 3 -1 5 20 24 47 42 28 19 52 40 54
47 6 19 -12 14 -26 -8z m-144 -46 c32 -9 27 -27 -5 -20 -18 4 -41 -1 -65 -14
-47 -25 -59 -9 -15 19 34 22 48 24 85 15z"/>
<path d="M551 444 c0 -11 3 -14 6 -6 3 7 2 16 -1 19 -3 4 -6 -2 -5 -13z"/>
<path d="M562 385 c0 -16 2 -22 5 -12 2 9 2 23 0 30 -3 6 -5 -1 -5 -18z"/>
</g>
</svg>
